HIERARCHY
ROOT Hips
{
	OFFSET 0.000000 0.000000 0.000000
	CHANNELS 6 Xposition Yposition Zposition Xrotation Yrotation Zrotation
	JOINT LeftUpLeg_virtual
	{
		OFFSET 0.000000 0.000000 0.000000
		CHANNELS 3 Xrotation Yrotation Zrotation
		JOINT LeftUpLeg
		{
			OFFSET 11.394100 -6.187798 -0.413800
			CHANNELS 3 Xrotation Yrotation Zrotation
			JOINT LeftLeg
			{
				OFFSET 0.430247 -32.302673 3.732800
				CHANNELS 3 Xrotation Yrotation Zrotation
				JOINT LeftFoot
				{
					OFFSET -0.430247 -48.264931 -6.423300
					CHANNELS 3 Xrotation Yrotation Zrotation
					JOINT LeftToeBase
					{
						OFFSET 4.230900 -16.068199 23.438400
						CHANNELS 3 Xrotation Yrotation Zrotation
						JOINT LeftToe_End
						{
							OFFSET 4.510700 0.695400 19.974600
							CHANNELS 3 Xrotation Yrotation Zrotation
							End Site
							{
								OFFSET 0 0 0
							}
						}
					}
				}
			}
		}
	}
	JOINT RightUpLeg_virtual
	{
		OFFSET 0.000000 0.000000 0.000000
		CHANNELS 3 Xrotation Yrotation Zrotation
		JOINT RightUpLeg
		{
			OFFSET -11.333700 -6.187798 -0.413800
			CHANNELS 3 Xrotation Yrotation Zrotation
			JOINT RightLeg
			{
				OFFSET -0.430392 -32.302628 3.733000
				CHANNELS 3 Xrotation Yrotation Zrotation
				JOINT RightFoot
				{
					OFFSET 0.430392 -48.264973 -6.423500
					CHANNELS 3 Xrotation Yrotation Zrotation
					JOINT RightToeBase
					{
						OFFSET -4.230900 -16.068199 23.438400
						CHANNELS 3 Xrotation Yrotation Zrotation
						JOINT RightToe_End
						{
							OFFSET -4.510700 0.695400 19.974600
							CHANNELS 3 Xrotation Yrotation Zrotation
							End Site
							{
								OFFSET 0 0 0
							}
						}
					}
				}
			}
		}
	}
	JOINT Spine_virtual
	{
		OFFSET 0.000000 0.000000 0.000000
		CHANNELS 3 Xrotation Yrotation Zrotation
		JOINT Spine
		{
			OFFSET -0.002400 12.777504 0.315300
			CHANNELS 3 Xrotation Yrotation Zrotation
			JOINT Spine1
			{
				OFFSET -0.002067 5.816869 0.032633
				CHANNELS 3 Xrotation Yrotation Zrotation
				JOINT Spine1_split
				{
					OFFSET -0.002067 5.816869 0.032633
					CHANNELS 3 Xrotation Yrotation Zrotation
					JOINT Spine2
					{
						OFFSET -0.002067 5.816869 0.032633
						CHANNELS 3 Xrotation Yrotation Zrotation
						JOINT Neck_virtual
						{
							OFFSET 0.000000 0.000000 0.000000
							CHANNELS 3 Xrotation Yrotation Zrotation
							JOINT Neck
							{
								OFFSET -0.003700 21.199493 -0.826900
								CHANNELS 3 Xrotation Yrotation Zrotation
								JOINT Head
								{
									OFFSET 0.000000 20.442200 4.834800
									CHANNELS 3 Xrotation Yrotation Zrotation
									JOINT HeadTop_End
									{
										OFFSET 0.000000 34.668396 4.968400
										CHANNELS 3 Xrotation Yrotation Zrotation
										End Site
										{
											OFFSET 0 0 0
										}
									}
								}
							}
						}
						JOINT LeftShoulder_virtual
						{
							OFFSET 0.000000 0.000000 0.000000
							CHANNELS 3 Xrotation Yrotation Zrotation
							JOINT LeftShoulder
							{
								OFFSET 3.288150 8.794197 -1.372250
								CHANNELS 3 Xrotation Yrotation Zrotation
								JOINT LeftShoulder_split
								{
									OFFSET 3.288150 8.794197 -1.372250
									CHANNELS 3 Xrotation Yrotation Zrotation
									JOINT LeftArm
									{
										OFFSET 11.953299 -2.279007 -0.146200
										CHANNELS 3 Xrotation Yrotation Zrotation
										JOINT LeftForeArm
										{
											OFFSET 18.448900 0.000000 0.000000
											CHANNELS 3 Xrotation Yrotation Zrotation
											JOINT LeftHand
											{
												OFFSET 29.527798 0.000000 0.000000
												CHANNELS 3 Xrotation Yrotation Zrotation
												End Site
												{
													OFFSET 0 0 0
												}
											}
										}
									}
								}
							}
						}
						JOINT RightShoulder_virtual
						{
							OFFSET 0.000000 0.000000 0.000000
							CHANNELS 3 Xrotation Yrotation Zrotation
							JOINT RightShoulder
							{
								OFFSET -3.249400 8.794197 -1.372250
								CHANNELS 3 Xrotation Yrotation Zrotation
								JOINT RightShoulder_split
								{
									OFFSET -3.249400 8.794197 -1.372250
									CHANNELS 3 Xrotation Yrotation Zrotation
									JOINT RightArm
									{
										OFFSET -11.953299 -2.279007 -0.146200
										CHANNELS 3 Xrotation Yrotation Zrotation
										JOINT RightForeArm
										{
											OFFSET -18.448900 0.000000 0.000000
											CHANNELS 3 Xrotation Yrotation Zrotation
											JOINT RightHand
											{
												OFFSET -29.527802 0.000000 0.000000
												CHANNELS 3 Xrotation Yrotation Zrotation
												End Site
												{
													OFFSET 0 0 0
												}
											}
										}
									}
								}
							}
						}
					}
				}
			}
		}
	}
}
MOTION
Frames: 6
Frame Time: 0.03333333
0.605186 100.153450 0.828083 0.000000 0.000000 0.000000 -1.638747 2.639723 -6.075071 -20.727503 8.422451 20.457216 21.000105 12.192350 1.084218 0.157549 1.986877 -11.227957 4.704454 0.244113 -2.339062 0.000000 0.000000 0.000000 -0.778938 2.142109 -6.747822 -4.919355 -2.527333 8.800278 10.355947 -5.420413 2.188193 -4.351167 0.949559 -12.360657 0.497748 -0.745761 -1.503789 0.000000 0.000000 0.000000 -1.555581 1.427308 -6.525736 1.675672 -1.228104 4.522324 1.262048 0.026804 5.730968 0.918888 1.101220 -0.134301 0.000000 0.000000 0.000000 -0.232670 0.438743 5.588745 0.045741 0.763240 -1.980776 1.852326 2.257040 -7.599152 0.000000 0.000000 0.000000 0.165352 0.547521 5.538097 4.458893 -10.886998 -4.224472 -0.909526 0.821358 -0.646292 4.228932 3.797206 -85.610868 -1.855632 -13.164973 0.562865 0.000000 0.000000 0.000000 0.673198 0.695904 5.516674 5.226807 3.300421 8.227245 -1.852382 2.565809 -2.121092 0.599847 4.474433 66.439709 1.419217 20.021916 1.556480 0.000000 0.000000 0.000000 
0.433447 100.166397 0.824936 0.000000 0.000000 0.000000 -1.591805 2.799740 -6.107985 -20.784365 8.380824 20.583192 20.988027 12.157655 1.105783 0.365777 1.945763 -11.328925 4.739128 0.267492 -2.484568 0.000000 0.000000 0.000000 -0.724967 2.269883 -6.775740 -4.898691 -2.421941 8.972455 10.093997 -5.516165 2.140811 -4.321876 0.934036 -12.324186 0.456166 -0.721816 -1.508504 0.000000 0.000000 0.000000 -1.466997 1.613290 -6.592876 1.649815 -1.282759 4.544169 1.324045 0.022833 5.706868 0.947367 1.033438 -0.156772 0.000000 0.000000 0.000000 -0.225807 0.425267 5.565696 -0.114414 0.727294 -1.743453 1.538284 2.119226 -7.562911 0.000000 0.000000 0.000000 0.184750 0.524590 5.530126 4.456980 -10.862131 -4.294023 -0.839774 0.734382 -0.313079 4.110626 3.852400 -85.333105 -1.963879 -13.244814 0.414498 0.000000 0.000000 0.000000 0.647606 0.677465 5.499267 5.148607 3.450268 8.259784 -1.704568 2.665951 -2.174432 0.662561 4.461519 66.699830 1.312478 20.223884 1.597770 0.000000 0.000000 0.000000 
0.169587 100.183495 0.783150 0.000000 0.000000 0.000000 -1.498460 2.970695 -6.274877 -20.985003 8.229301 20.915810 21.048348 12.077102 1.155744 0.702636 1.845408 -11.490313 4.782936 0.287806 -2.609630 0.000000 0.000000 0.000000 -0.622528 2.410047 -6.923647 -4.917979 -2.300947 9.301695 9.863270 -5.593763 2.138630 -4.257773 0.962228 -12.239235 0.409370 -0.704853 -1.560824 0.000000 0.000000 0.000000 -1.326182 1.780824 -6.765922 1.634849 -1.372848 4.611064 1.440780 0.006935 5.662921 0.986272 0.949888 -0.178327 0.000000 0.000000 0.000000 -0.153451 0.400599 5.523146 -0.460376 0.691280 -1.459330 0.654502 1.868893 -7.253408 0.000000 0.000000 0.000000 0.230575 0.492261 5.498128 4.450564 -10.863619 -4.337819 -0.808778 0.653466 -0.071950 3.780655 3.691059 -84.683356 -2.051584 -13.272017 0.267226 0.000000 0.000000 0.000000 0.653781 0.636032 5.463256 5.007890 3.565651 8.463025 -1.638912 2.692926 -2.261603 0.859013 5.037551 66.836365 1.264386 20.139547 1.614751 0.000000 0.000000 0.000000 
-0.130403 100.186035 0.724422 0.000000 0.000000 0.000000 -1.381023 3.136594 -6.549547 -21.276673 7.989206 21.392079 21.151868 11.974297 1.237936 1.028208 1.717842 -11.698664 4.817053 0.298811 -2.697004 0.000000 0.000000 0.000000 -0.492209 2.556295 -7.176027 -4.989100 -2.138859 9.750553 9.701674 -5.669335 2.171031 -4.212936 0.982659 -12.175331 0.348500 -0.696713 -1.617298 0.000000 0.000000 0.000000 -1.145277 1.910120 -7.014290 1.610277 -1.484105 4.704798 1.610632 -0.011606 5.600352 1.006036 0.912824 -0.210176 0.000000 0.000000 0.000000 -0.016040 0.365547 5.456246 -0.941621 0.652200 -1.152815 -0.713251 1.544974 -6.725881 0.000000 0.000000 0.000000 0.305967 0.454712 5.439212 4.436894 -10.875528 -4.368870 -0.845898 0.495901 0.045985 3.273256 3.288182 -83.764101 -2.088223 -13.262987 0.133210 0.000000 0.000000 0.000000 0.697472 0.582148 5.407119 4.805117 3.640370 8.839782 -1.627619 2.729100 -2.367073 1.174819 6.115853 66.797372 1.283260 19.750127 1.612559 0.000000 0.000000 0.000000 
-0.438595 100.162201 0.669750 0.000000 0.000000 0.000000 -1.225778 3.320092 -6.892682 -21.632485 7.683777 21.950893 21.265516 11.849022 1.347970 1.237446 1.565559 -11.984043 4.784873 0.297852 -2.716676 0.000000 0.000000 0.000000 -0.331774 2.708607 -7.493307 -5.089645 -1.906372 10.269861 9.618345 -5.757957 2.225563 -4.229013 0.945267 -12.192325 0.296735 -0.699184 -1.626370 0.000000 0.000000 0.000000 -0.953492 2.007697 -7.300519 1.559308 -1.610898 4.803643 1.824116 -0.026134 5.514555 1.014678 0.905962 -0.228644 0.000000 0.000000 0.000000 0.169099 0.325742 5.358039 -1.473062 0.614835 -0.848420 -2.412355 1.195737 -6.064103 0.000000 0.000000 0.000000 0.412669 0.418337 5.350462 4.410249 -10.870964 -4.410248 -0.932677 0.210173 0.067367 2.658953 2.654312 -82.672692 -2.036025 -13.265580 0.032983 0.000000 0.000000 0.000000 0.782952 0.523319 5.326848 4.554911 3.661018 9.357865 -1.674114 2.722930 -2.445730 1.618299 7.592489 66.533986 1.369058 19.057865 1.590094 0.000000 0.000000 0.000000 
-0.736469 100.110466 0.651981 0.000000 0.000000 0.000000 -1.025296 3.529726 -7.260660 -22.033063 7.339867 22.534423 21.416589 11.708896 1.467238 1.319596 1.404554 -12.367186 4.682180 0.282718 -2.673775 0.000000 0.000000 0.000000 -0.134319 2.847811 -7.833734 -5.210926 -1.586143 10.822191 9.565580 -5.838528 2.286627 -4.284383 0.826588 -12.309439 0.248972 -0.707753 -1.575343 0.000000 0.000000 0.000000 -0.766889 2.072649 -7.591222 1.457627 -1.744084 4.889090 2.067164 -0.032892 5.403214 1.027425 0.882001 -0.224431 0.000000 0.000000 0.000000 0.379143 0.283345 5.226865 -1.986968 0.591322 -0.566455 -4.274778 0.845858 -5.326617 0.000000 0.000000 0.000000 0.551703 0.382841 5.231997 4.365515 -10.825344 -4.478712 -0.986368 -0.166649 0.054203 2.027917 1.887427 -81.505160 -1.886299 -13.341687 -0.032241 0.000000 0.000000 0.000000 0.912417 0.466594 5.222153 4.274299 3.623358 9.979361 -1.803590 2.669930 -2.495663 2.170346 9.286777 66.008014 1.508428 18.104945 1.553286 0.000000 0.000000 0.000000 
